<svg width="150" height="156" viewBox="0 0 150 156" fill="none" xmlns="http://www.w3.org/2000/svg">
<path fill-rule="evenodd" clip-rule="evenodd" d="M131.252 38.8394H18.7524V58.259C22.0676 58.259 25.2471 59.623 27.5913 62.0509C29.9355 64.4788 31.2524 67.7718 31.2524 71.2054V97.0983C31.2524 115.405 31.2524 124.564 36.7462 130.248C42.2337 135.938 51.0774 135.938 68.7524 135.938H81.2524C98.9337 135.938 107.771 135.938 113.259 130.248C118.759 124.564 118.759 115.405 118.759 97.0983V71.2054C118.759 67.7718 120.076 64.4788 122.42 62.0509C124.764 59.623 127.943 58.259 131.259 58.259L131.252 38.8394ZM65.6274 71.2054C65.6274 69.4886 64.969 67.8421 63.7969 66.6282C62.6248 65.4142 61.035 64.7322 59.3774 64.7322C57.7198 64.7322 56.1301 65.4142 54.958 66.6282C53.7859 67.8421 53.1274 69.4886 53.1274 71.2054V103.572C53.1274 105.288 53.7859 106.935 54.958 108.149C56.1301 109.363 57.7198 110.045 59.3774 110.045C61.035 110.045 62.6248 109.363 63.7969 108.149C64.969 106.935 65.6274 105.288 65.6274 103.572V71.2054ZM96.8774 71.2054C96.8774 69.4886 96.219 67.8421 95.0469 66.6282C93.8748 65.4142 92.285 64.7322 90.6274 64.7322C88.9698 64.7322 87.3801 65.4142 86.208 66.6282C85.0359 67.8421 84.3774 69.4886 84.3774 71.2054V103.572C84.3774 105.288 85.0359 106.935 86.208 108.149C87.3801 109.363 88.9698 110.045 90.6274 110.045C92.285 110.045 93.8748 109.363 95.0469 108.149C96.219 106.935 96.8774 105.288 96.8774 103.572V71.2054Z" fill="#3D2929"/>
<path d="M62.9275 21.8148C63.64 21.1286 65.2087 20.5202 67.3962 20.0865C69.9068 19.6248 72.4528 19.4017 75.0025 19.4197C77.7525 19.4197 80.4275 19.6528 82.6087 20.0865C84.79 20.5202 86.3587 21.1286 87.0775 21.8213" fill="#3D2929"/>
<path d="M62.9275 21.8148C63.64 21.1286 65.2087 20.5202 67.3962 20.0865C69.9068 19.6248 72.4528 19.4017 75.0025 19.4197C77.7525 19.4197 80.4275 19.6528 82.6087 20.0865C84.79 20.5202 86.3587 21.1286 87.0775 21.8213" stroke="#3D2929" stroke-width="2" stroke-linecap="round"/>
</svg>
