<svg width="20" height="20" viewBox="0 0 20 20" fill="none" xmlns="http://www.w3.org/2000/svg">
<path d="M19.6569 1.71717C19.6433 1.44227 19.5462 1.18288 19.3839 0.98815C19.2217 0.793422 19.0055 0.676883 18.7764 0.660611C14.6147 0.367174 11.2608 1.91311 9.80455 4.79874C8.85611 6.67374 8.8233 8.93967 9.69048 11.1081C9.26837 11.7542 8.94369 12.484 8.73111 13.2644L7.74205 12.0775C8.30377 10.5053 8.24439 8.87967 7.55455 7.5128C6.46236 5.34624 3.97486 4.18749 0.901421 4.4003C0.672206 4.41659 0.455945 4.53326 0.293654 4.72819C0.131362 4.92311 0.0343273 5.18273 0.0209521 5.4578C-0.157173 9.14592 0.808452 12.1309 2.61236 13.4415C3.22416 13.889 3.92712 14.1249 4.64361 14.1231C5.25447 14.1172 5.85792 13.9619 6.41705 13.6665L8.43658 16.0937V18.25C8.43658 18.5484 8.53535 18.8345 8.71116 19.0455C8.88698 19.2565 9.12544 19.375 9.37408 19.375C9.62272 19.375 9.86117 19.2565 10.037 19.0455C10.2128 18.8345 10.3116 18.5484 10.3116 18.25V15.4853C10.3096 14.4797 10.5688 13.4983 11.053 12.6775C11.8373 13.1234 12.6929 13.3597 13.5608 13.3703C14.4946 13.3729 15.4108 13.066 16.2085 12.4834C18.6124 10.7359 19.9022 6.71124 19.6569 1.71717ZM3.58345 11.5169C2.55298 10.7669 1.92876 8.94249 1.87798 6.62967C3.80533 6.69061 5.32642 7.43967 5.95064 8.67624C6.19475 9.15271 6.29488 9.71543 6.23423 10.27L5.34908 9.20405C5.17296 8.9927 4.93409 8.87397 4.68501 8.87397C4.43594 8.87397 4.19707 8.9927 4.02095 9.20405C3.84483 9.41539 3.74589 9.70204 3.74589 10.0009C3.74589 10.2998 3.84483 10.5865 4.02095 10.7978L4.90689 11.8609C4.44601 11.9292 3.97946 11.8079 3.58345 11.5169ZM15.2374 10.5625C14.4045 11.1672 13.4405 11.2815 12.4397 10.915L15.3499 7.42374C15.526 7.21239 15.6249 6.92575 15.6249 6.62686C15.6249 6.32797 15.526 6.04133 15.3499 5.82999C15.1737 5.61864 14.9349 5.49991 14.6858 5.49991C14.4367 5.49991 14.1979 5.61864 14.0217 5.82999L11.1116 9.32123C10.8092 8.12498 10.9045 6.96342 11.4053 5.96874C12.3975 3.99999 14.7374 2.87499 17.7585 2.87499H17.8116C17.8225 6.53124 16.885 9.36061 15.2374 10.5625Z" fill="black"/>
</svg>
